<svg xmlns="http://www.w3.org/2000/svg" xmlns:xlink="http://www.w3.org/1999/xlink" width="500" zoomAndPan="magnify" viewBox="0 0 375 374.999991" height="500" preserveAspectRatio="xMidYMid meet" version="1.0"><defs><g/></defs><path stroke-linecap="butt" transform="matrix(0.75, 0, 0, 0.75, 47.702855, 238.004339)" fill="none" stroke-linejoin="miter" d="M 0.000360043 3.999424 L 356.641008 3.999424 " stroke="#355e3b" stroke-width="8" stroke-opacity="1" stroke-miterlimit="4"/><g fill="#000000" fill-opacity="1"><g transform="translate(47.702855, 148.084433)"><g><path d="M 21.453125 0.984375 C 15.953125 0.984375 11.375 -0.988281 7.71875 -4.9375 C 4.070312 -8.894531 2.25 -13.90625 2.25 -19.96875 C 2.25 -26.082031 4.101562 -31.097656 7.8125 -35.015625 C 11.519531 -38.929688 16.066406 -40.890625 21.453125 -40.890625 C 26.941406 -40.890625 31.515625 -38.9375 35.171875 -35.03125 C 38.828125 -31.125 40.65625 -26.101562 40.65625 -19.96875 C 40.65625 -13.8125 38.800781 -8.78125 35.09375 -4.875 C 31.394531 -0.96875 26.847656 0.984375 21.453125 0.984375 Z M 21.453125 -38.40625 C 17.535156 -38.40625 14.488281 -36.75 12.3125 -33.4375 C 10.144531 -30.125 9.0625 -25.632812 9.0625 -19.96875 C 9.0625 -14.257812 10.148438 -9.757812 12.328125 -6.46875 C 14.503906 -3.1875 17.546875 -1.546875 21.453125 -1.546875 C 25.398438 -1.546875 28.453125 -3.191406 30.609375 -6.484375 C 32.765625 -9.785156 33.84375 -14.28125 33.84375 -19.96875 C 33.84375 -25.675781 32.753906 -30.175781 30.578125 -33.46875 C 28.398438 -36.757812 25.359375 -38.40625 21.453125 -38.40625 Z M 21.453125 -38.40625 "/></g></g></g><g fill="#000000" fill-opacity="1"><g transform="translate(90.621049, 148.084433)"><g><path d="M 30.921875 0 C 26.804688 -6.476562 22.550781 -12.515625 18.15625 -18.109375 L 14.140625 -18.109375 L 14.140625 -5.4375 C 14.140625 -4.101562 14.453125 -3.253906 15.078125 -2.890625 C 15.703125 -2.523438 17.226562 -2.238281 19.65625 -2.03125 L 19.65625 0 L 2.765625 0 L 2.765625 -2.03125 C 5.085938 -2.21875 6.5625 -2.515625 7.1875 -2.921875 C 7.820312 -3.335938 8.140625 -4.175781 8.140625 -5.4375 L 8.140625 -34.328125 C 8.140625 -35.546875 7.800781 -36.40625 7.125 -36.90625 C 6.445312 -37.414062 4.992188 -37.765625 2.765625 -37.953125 L 2.765625 -39.953125 L 21.234375 -39.953125 C 25.078125 -39.953125 28.128906 -39.117188 30.390625 -37.453125 C 32.660156 -35.796875 33.796875 -33.457031 33.796875 -30.4375 C 33.796875 -25.144531 30.546875 -21.550781 24.046875 -19.65625 C 25.378906 -17.96875 28.019531 -14.4375 31.96875 -9.0625 C 34.007812 -6.269531 35.304688 -4.648438 35.859375 -4.203125 C 36.410156 -3.765625 37.046875 -3.320312 37.765625 -2.875 C 38.492188 -2.425781 39.804688 -2.144531 41.703125 -2.03125 L 41.703125 0 Z M 14.140625 -37.65625 L 14.140625 -20.53125 L 17.828125 -20.53125 C 20.523438 -20.53125 22.703125 -21.390625 24.359375 -23.109375 C 26.023438 -24.835938 26.859375 -27.078125 26.859375 -29.828125 C 26.859375 -32.296875 26.148438 -34.21875 24.734375 -35.59375 C 23.316406 -36.96875 21.378906 -37.65625 18.921875 -37.65625 Z M 14.140625 -37.65625 "/></g></g></g><g fill="#000000" fill-opacity="1"><g transform="translate(131.117351, 148.084433)"><g><path d="M 2.640625 0 L 2.640625 -2.03125 C 4.910156 -2.03125 6.394531 -2.289062 7.09375 -2.8125 C 7.789062 -3.34375 8.140625 -4.171875 8.140625 -5.296875 L 8.140625 -34.125 C 8.140625 -35.363281 7.738281 -36.257812 6.9375 -36.8125 C 6.144531 -37.375 4.789062 -37.753906 2.875 -37.953125 L 2.875 -39.953125 L 20.359375 -39.953125 C 25.992188 -39.953125 30.84375 -38.203125 34.90625 -34.703125 C 38.96875 -31.203125 41 -26.207031 41 -19.71875 C 41 -13.632812 38.898438 -8.828125 34.703125 -5.296875 C 30.503906 -1.765625 25.335938 0 19.203125 0 Z M 14.140625 -37.53125 L 14.140625 -6.875 C 14.140625 -5.164062 14.628906 -3.976562 15.609375 -3.3125 C 16.597656 -2.644531 18.125 -2.3125 20.1875 -2.3125 C 24.726562 -2.3125 28.1875 -3.8125 30.5625 -6.8125 C 32.9375 -9.820312 34.125 -14.140625 34.125 -19.765625 C 34.125 -25.054688 32.71875 -29.359375 29.90625 -32.671875 C 27.101562 -35.992188 23.425781 -37.65625 18.875 -37.65625 C 16.914062 -37.65625 15.335938 -37.613281 14.140625 -37.53125 Z M 14.140625 -37.53125 "/></g></g></g><g fill="#000000" fill-opacity="1"><g transform="translate(174.317161, 148.084433)"><g><path d="M 43.203125 -37.953125 C 40.367188 -37.734375 38.570312 -37.101562 37.8125 -36.0625 C 37.0625 -35.019531 36.6875 -32.6875 36.6875 -29.0625 L 36.6875 -11.71875 C 36.6875 -7.769531 35.242188 -4.664062 32.359375 -2.40625 C 29.484375 -0.144531 26.125 0.984375 22.28125 0.984375 C 17.726562 0.984375 14.097656 -0.117188 11.390625 -2.328125 C 8.679688 -4.546875 7.328125 -7.289062 7.328125 -10.5625 L 7.328125 -34.125 C 7.328125 -36.320312 5.578125 -37.597656 2.078125 -37.953125 L 2.078125 -39.953125 L 18.75 -39.953125 L 18.75 -37.953125 C 16.5 -37.765625 15.039062 -37.4375 14.375 -36.96875 C 13.707031 -36.5 13.375 -35.65625 13.375 -34.4375 L 13.375 -12.328125 C 13.375 -5.578125 16.675781 -2.203125 23.28125 -2.203125 C 26.738281 -2.203125 29.375 -3.164062 31.1875 -5.09375 C 33 -7.03125 33.90625 -9.425781 33.90625 -12.28125 L 33.90625 -28.71875 C 33.90625 -32.695312 33.410156 -35.15625 32.421875 -36.09375 C 31.441406 -37.039062 29.570312 -37.660156 26.8125 -37.953125 L 26.8125 -39.953125 L 43.203125 -39.953125 Z M 43.203125 -37.953125 "/></g></g></g><g fill="#000000" fill-opacity="1"><g transform="translate(217.911232, 148.084433)"><g><path d="M 43.765625 -37.953125 C 41.023438 -37.597656 39.253906 -37 38.453125 -36.15625 C 37.648438 -35.3125 37.25 -32.875 37.25 -28.84375 L 37.25 0.390625 L 34.828125 0.390625 L 10.609375 -32.296875 L 10.609375 -11.71875 C 10.609375 -9.238281 10.757812 -7.425781 11.0625 -6.28125 C 11.363281 -5.132812 11.722656 -4.347656 12.140625 -3.921875 C 12.566406 -3.503906 13.382812 -3.101562 14.59375 -2.71875 C 15.8125 -2.332031 16.867188 -2.101562 17.765625 -2.03125 L 17.765625 0 L 1.328125 0 L 1.328125 -2.03125 C 3.554688 -2.34375 5.207031 -2.847656 6.28125 -3.546875 C 7.363281 -4.242188 7.90625 -6.84375 7.90625 -11.34375 L 7.90625 -31.09375 C 7.90625 -34.976562 5.503906 -37.265625 0.703125 -37.953125 L 0.703125 -39.953125 L 12.046875 -39.953125 L 34.546875 -9.515625 L 34.546875 -28.5 C 34.546875 -32.78125 34.015625 -35.335938 32.953125 -36.171875 C 31.898438 -37.003906 30.085938 -37.597656 27.515625 -37.953125 L 27.515625 -39.953125 L 43.765625 -39.953125 Z M 43.765625 -37.953125 "/></g></g></g><g fill="#000000" fill-opacity="1"><g transform="translate(262.153034, 148.084433)"><g><path d="M 23.34375 0 L 23.34375 -2.03125 C 26.78125 -2.238281 28.5 -2.769531 28.5 -3.625 C 28.5 -4.039062 28.421875 -4.445312 28.265625 -4.84375 L 24.921875 -13.859375 L 10.890625 -13.859375 C 9.054688 -9.085938 8.140625 -5.96875 8.140625 -4.5 C 8.140625 -3.113281 10.0625 -2.289062 13.90625 -2.03125 L 13.90625 0 L -1.15625 0 L -1.15625 -2.03125 C 0.382812 -2.144531 1.625 -2.503906 2.5625 -3.109375 C 3.5 -3.722656 4.210938 -4.476562 4.703125 -5.375 C 5.191406 -6.28125 6.9375 -10.585938 9.9375 -18.296875 L 18.5625 -40.546875 L 20.8125 -40.546875 L 34.125 -6.046875 C 35.082031 -3.554688 37.046875 -2.21875 40.015625 -2.03125 L 40.015625 0 Z M 17.875 -31.828125 L 11.9375 -16.328125 L 23.9375 -16.328125 Z M 17.875 -31.828125 "/></g></g></g><g fill="#000000" fill-opacity="1"><g transform="translate(47.702855, 216.91323)"><g><path d="M 31.65625 -29.984375 C 31.3125 -31.429688 30.570312 -32.898438 29.4375 -34.390625 C 28.300781 -35.890625 27.34375 -36.816406 26.5625 -37.171875 C 25.789062 -37.523438 23.875 -37.703125 20.8125 -37.703125 L 14.140625 -37.703125 L 14.140625 -21.6875 L 18.703125 -21.6875 C 21.160156 -21.6875 22.859375 -22.222656 23.796875 -23.296875 C 24.734375 -24.378906 25.316406 -26.007812 25.546875 -28.1875 L 27.6875 -28.1875 L 27.6875 -12.5 L 25.546875 -12.5 C 25.316406 -14.65625 24.785156 -16.335938 23.953125 -17.546875 C 23.128906 -18.765625 21.378906 -19.375 18.703125 -19.375 L 14.140625 -19.375 L 14.140625 -5.65625 C 14.140625 -4.6875 14.410156 -3.898438 14.953125 -3.296875 C 15.492188 -2.691406 17.082031 -2.269531 19.71875 -2.03125 L 19.71875 0 L 2.421875 0 L 2.421875 -2.03125 C 4.554688 -2.195312 5.851562 -2.320312 6.3125 -2.40625 C 6.78125 -2.488281 7.203125 -2.773438 7.578125 -3.265625 C 7.953125 -3.753906 8.140625 -4.429688 8.140625 -5.296875 L 8.140625 -34.125 C 8.140625 -35.4375 7.632812 -36.363281 6.625 -36.90625 C 5.625 -37.457031 4.222656 -37.804688 2.421875 -37.953125 L 2.421875 -39.953125 L 33.734375 -39.953125 L 33.734375 -29.984375 Z M 31.65625 -29.984375 "/></g></g></g><g fill="#000000" fill-opacity="1"><g transform="translate(82.257086, 216.91323)"><g><path d="M 23.34375 0 L 23.34375 -2.03125 C 26.78125 -2.238281 28.5 -2.769531 28.5 -3.625 C 28.5 -4.039062 28.421875 -4.445312 28.265625 -4.84375 L 24.921875 -13.859375 L 10.890625 -13.859375 C 9.054688 -9.085938 8.140625 -5.96875 8.140625 -4.5 C 8.140625 -3.113281 10.0625 -2.289062 13.90625 -2.03125 L 13.90625 0 L -1.15625 0 L -1.15625 -2.03125 C 0.382812 -2.144531 1.625 -2.503906 2.5625 -3.109375 C 3.5 -3.722656 4.210938 -4.476562 4.703125 -5.375 C 5.191406 -6.28125 6.9375 -10.585938 9.9375 -18.296875 L 18.5625 -40.546875 L 20.8125 -40.546875 L 34.125 -6.046875 C 35.082031 -3.554688 37.046875 -2.21875 40.015625 -2.03125 L 40.015625 0 Z M 17.875 -31.828125 L 11.9375 -16.328125 L 23.9375 -16.328125 Z M 17.875 -31.828125 "/></g></g></g><g fill="#000000" fill-opacity="1"><g transform="translate(120.951048, 216.91323)"><g><path d="M 33.234375 0 L 33.234375 -2.03125 C 35.160156 -2.195312 36.429688 -2.335938 37.046875 -2.453125 C 37.671875 -2.566406 38.226562 -2.910156 38.71875 -3.484375 C 39.207031 -4.066406 39.453125 -4.789062 39.453125 -5.65625 L 39.453125 -34.71875 L 38.96875 -34.71875 L 25.375 -0.640625 L 24 -0.640625 L 10.953125 -35.390625 L 10.609375 -35.390625 L 10.609375 -11.546875 C 10.609375 -9.109375 10.800781 -7.160156 11.1875 -5.703125 C 11.570312 -4.242188 12.550781 -3.28125 14.125 -2.8125 C 15.707031 -2.34375 16.828125 -2.082031 17.484375 -2.03125 L 17.484375 0 L 1.328125 0 L 1.328125 -2.03125 C 4.210938 -2.269531 6.03125 -2.929688 6.78125 -4.015625 C 7.53125 -5.109375 7.90625 -7.515625 7.90625 -11.234375 L 7.90625 -31.65625 C 7.90625 -35.632812 5.804688 -37.734375 1.609375 -37.953125 L 1.609375 -39.953125 L 15.234375 -39.953125 L 26.640625 -9.96875 L 36.4375 -35.0625 C 37.070312 -36.707031 37.515625 -38.335938 37.765625 -39.953125 L 50.796875 -39.953125 L 50.796875 -37.953125 C 48.523438 -37.765625 47.054688 -37.4375 46.390625 -36.96875 C 45.722656 -36.5 45.390625 -35.65625 45.390625 -34.4375 L 45.390625 -5.65625 C 45.390625 -4.457031 45.765625 -3.597656 46.515625 -3.078125 C 47.265625 -2.566406 48.710938 -2.21875 50.859375 -2.03125 L 50.859375 0 Z M 33.234375 0 "/></g></g></g><g fill="#000000" fill-opacity="1"><g transform="translate(174.401661, 216.91323)"><g><path d="M 2.25 0 L 2.25 -2.03125 C 4.894531 -2.21875 6.554688 -2.488281 7.234375 -2.84375 C 7.910156 -3.195312 8.25 -3.992188 8.25 -5.234375 L 8.25 -34.1875 C 8.25 -35.445312 7.691406 -36.359375 6.578125 -36.921875 C 5.460938 -37.484375 4.019531 -37.828125 2.25 -37.953125 L 2.25 -39.953125 L 20.25 -39.953125 L 20.25 -37.953125 C 17.71875 -37.765625 16.082031 -37.429688 15.34375 -36.953125 C 14.613281 -36.472656 14.25 -35.65625 14.25 -34.5 L 14.25 -5.609375 C 14.25 -4.628906 14.566406 -3.84375 15.203125 -3.25 C 15.835938 -2.65625 17.519531 -2.25 20.25 -2.03125 L 20.25 0 Z M 2.25 0 "/></g></g></g><g fill="#000000" fill-opacity="1"><g transform="translate(196.902751, 216.91323)"><g><path d="M 33.96875 0 L 2.765625 0 L 2.765625 -2.03125 C 5.085938 -2.21875 6.5625 -2.515625 7.1875 -2.921875 C 7.820312 -3.335938 8.140625 -4.175781 8.140625 -5.4375 L 8.140625 -34.015625 C 8.140625 -35.328125 7.625 -36.28125 6.59375 -36.875 C 5.5625 -37.46875 4.285156 -37.828125 2.765625 -37.953125 L 2.765625 -39.953125 L 19.59375 -39.953125 L 19.59375 -37.953125 C 17.226562 -37.765625 15.726562 -37.410156 15.09375 -36.890625 C 14.457031 -36.378906 14.140625 -35.523438 14.140625 -34.328125 L 14.140625 -7.484375 C 14.140625 -5.085938 14.472656 -3.609375 15.140625 -3.046875 C 15.816406 -2.484375 17.648438 -2.203125 20.640625 -2.203125 C 22.671875 -2.203125 24.257812 -2.316406 25.40625 -2.546875 C 26.550781 -2.785156 27.351562 -3.085938 27.8125 -3.453125 C 28.269531 -3.816406 29.0625 -4.914062 30.1875 -6.75 C 31.3125 -8.59375 32.1875 -10.304688 32.8125 -11.890625 L 34.828125 -11.890625 Z M 33.96875 0 "/></g></g></g><g fill="#000000" fill-opacity="1"><g transform="translate(231.738597, 216.91323)"><g><path d="M 37.03125 -37.953125 C 35.957031 -37.847656 34.9375 -37.507812 33.96875 -36.9375 C 33.007812 -36.363281 31.890625 -35.179688 30.609375 -33.390625 C 29.328125 -31.609375 27.507812 -28.691406 25.15625 -24.640625 C 22.800781 -20.597656 21.441406 -18.140625 21.078125 -17.265625 C 20.710938 -16.398438 20.53125 -15.140625 20.53125 -13.484375 L 20.53125 -5.890625 C 20.53125 -4.816406 20.890625 -3.96875 21.609375 -3.34375 C 22.335938 -2.726562 24.109375 -2.289062 26.921875 -2.03125 L 26.921875 0 L 8.25 0 L 8.25 -2.03125 C 11.007812 -2.21875 12.742188 -2.515625 13.453125 -2.921875 C 14.171875 -3.335938 14.53125 -4.234375 14.53125 -5.609375 L 14.53125 -15.296875 C 14.53125 -15.929688 12.941406 -19.21875 9.765625 -25.15625 C 6.597656 -31.101562 4.5 -34.679688 3.46875 -35.890625 C 2.445312 -37.097656 0.890625 -37.785156 -1.203125 -37.953125 L -1.203125 -39.953125 L 15.796875 -39.953125 L 15.796875 -37.953125 C 12.304688 -37.785156 10.5625 -37.335938 10.5625 -36.609375 C 10.5625 -36.078125 13.476562 -30.53125 19.3125 -19.96875 C 25.394531 -29.726562 28.4375 -35.03125 28.4375 -35.875 C 28.4375 -36.4375 28.101562 -36.878906 27.4375 -37.203125 C 26.769531 -37.535156 25.332031 -37.785156 23.125 -37.953125 L 23.125 -39.953125 L 37.03125 -39.953125 Z M 37.03125 -37.953125 "/></g></g></g><g fill="#000000" fill-opacity="1"><g transform="translate(47.702855, 273.882289)"><g><path d="M 12.234375 -11.59375 C 12.097656 -12.144531 11.8125 -12.707031 11.375 -13.28125 C 10.9375 -13.863281 10.566406 -14.222656 10.265625 -14.359375 C 9.960938 -14.492188 9.222656 -14.5625 8.046875 -14.5625 L 5.46875 -14.5625 L 5.46875 -8.375 L 7.21875 -8.375 C 8.175781 -8.375 8.832031 -8.582031 9.1875 -9 C 9.550781 -9.414062 9.78125 -10.046875 9.875 -10.890625 L 10.6875 -10.890625 L 10.6875 -4.828125 L 9.875 -4.828125 C 9.78125 -5.660156 9.570312 -6.3125 9.25 -6.78125 C 8.9375 -7.25 8.257812 -7.484375 7.21875 -7.484375 L 5.46875 -7.484375 L 5.46875 -2.1875 C 5.46875 -1.8125 5.570312 -1.503906 5.78125 -1.265625 C 5.988281 -1.035156 6.597656 -0.875 7.609375 -0.78125 L 7.609375 0 L 0.9375 0 L 0.9375 -0.78125 C 1.757812 -0.84375 2.257812 -0.890625 2.4375 -0.921875 C 2.613281 -0.960938 2.773438 -1.078125 2.921875 -1.265625 C 3.066406 -1.453125 3.140625 -1.710938 3.140625 -2.046875 L 3.140625 -13.1875 C 3.140625 -13.695312 2.945312 -14.054688 2.5625 -14.265625 C 2.175781 -14.472656 1.632812 -14.609375 0.9375 -14.671875 L 0.9375 -15.4375 L 13.03125 -15.4375 L 13.03125 -11.59375 Z M 12.234375 -11.59375 "/></g></g></g><g fill="#000000" fill-opacity="1"><g transform="translate(73.601655, 273.882289)"><g><path d="M 8.296875 0.375 C 6.171875 0.375 4.398438 -0.382812 2.984375 -1.90625 C 1.578125 -3.4375 0.875 -5.375 0.875 -7.71875 C 0.875 -10.082031 1.585938 -12.019531 3.015625 -13.53125 C 4.453125 -15.039062 6.210938 -15.796875 8.296875 -15.796875 C 10.410156 -15.796875 12.171875 -15.039062 13.578125 -13.53125 C 14.992188 -12.019531 15.703125 -10.082031 15.703125 -7.71875 C 15.703125 -5.332031 14.984375 -3.382812 13.546875 -1.875 C 12.117188 -0.375 10.367188 0.375 8.296875 0.375 Z M 8.296875 -14.84375 C 6.773438 -14.84375 5.59375 -14.203125 4.75 -12.921875 C 3.914062 -11.640625 3.5 -9.90625 3.5 -7.71875 C 3.5 -5.507812 3.921875 -3.769531 4.765625 -2.5 C 5.609375 -1.226562 6.785156 -0.59375 8.296875 -0.59375 C 9.816406 -0.59375 10.992188 -1.226562 11.828125 -2.5 C 12.660156 -3.78125 13.078125 -5.519531 13.078125 -7.71875 C 13.078125 -9.914062 12.65625 -11.648438 11.8125 -12.921875 C 10.96875 -14.203125 9.796875 -14.84375 8.296875 -14.84375 Z M 8.296875 -14.84375 "/></g></g></g><g fill="#000000" fill-opacity="1"><g transform="translate(102.731685, 273.882289)"><g><path d="M 16.6875 -14.671875 C 15.59375 -14.578125 14.898438 -14.328125 14.609375 -13.921875 C 14.316406 -13.523438 14.171875 -12.628906 14.171875 -11.234375 L 14.171875 -4.53125 C 14.171875 -3 13.613281 -1.796875 12.5 -0.921875 C 11.394531 -0.0546875 10.097656 0.375 8.609375 0.375 C 6.847656 0.375 5.441406 -0.0507812 4.390625 -0.90625 C 3.347656 -1.757812 2.828125 -2.816406 2.828125 -4.078125 L 2.828125 -13.1875 C 2.828125 -14.03125 2.15625 -14.523438 0.8125 -14.671875 L 0.8125 -15.4375 L 7.25 -15.4375 L 7.25 -14.671875 C 6.375 -14.597656 5.804688 -14.46875 5.546875 -14.28125 C 5.296875 -14.101562 5.171875 -13.78125 5.171875 -13.3125 L 5.171875 -4.765625 C 5.171875 -2.148438 6.445312 -0.84375 9 -0.84375 C 10.332031 -0.84375 11.347656 -1.21875 12.046875 -1.96875 C 12.742188 -2.71875 13.09375 -3.644531 13.09375 -4.75 L 13.09375 -11.09375 C 13.09375 -12.632812 12.898438 -13.582031 12.515625 -13.9375 C 12.140625 -14.300781 11.421875 -14.546875 10.359375 -14.671875 L 10.359375 -15.4375 L 16.6875 -15.4375 Z M 16.6875 -14.671875 "/></g></g></g><g fill="#000000" fill-opacity="1"><g transform="translate(132.122825, 273.882289)"><g><path d="M 16.90625 -14.671875 C 15.84375 -14.523438 15.15625 -14.289062 14.84375 -13.96875 C 14.539062 -13.644531 14.390625 -12.703125 14.390625 -11.140625 L 14.390625 0.15625 L 13.453125 0.15625 L 4.109375 -12.484375 L 4.109375 -4.53125 C 4.109375 -3.570312 4.164062 -2.867188 4.28125 -2.421875 C 4.394531 -1.984375 4.53125 -1.679688 4.6875 -1.515625 C 4.851562 -1.347656 5.171875 -1.191406 5.640625 -1.046875 C 6.109375 -0.898438 6.515625 -0.8125 6.859375 -0.78125 L 6.859375 0 L 0.515625 0 L 0.515625 -0.78125 C 1.378906 -0.90625 2.019531 -1.097656 2.4375 -1.359375 C 2.851562 -1.628906 3.0625 -2.640625 3.0625 -4.390625 L 3.0625 -12.015625 C 3.0625 -13.515625 2.128906 -14.398438 0.265625 -14.671875 L 0.265625 -15.4375 L 4.65625 -15.4375 L 13.34375 -3.671875 L 13.34375 -11.015625 C 13.34375 -12.660156 13.140625 -13.644531 12.734375 -13.96875 C 12.328125 -14.289062 11.625 -14.523438 10.625 -14.671875 L 10.625 -15.4375 L 16.90625 -15.4375 Z M 16.90625 -14.671875 "/></g></g></g><g fill="#000000" fill-opacity="1"><g transform="translate(161.76421, 273.882289)"><g><path d="M 1.015625 0 L 1.015625 -0.78125 C 1.898438 -0.78125 2.472656 -0.878906 2.734375 -1.078125 C 3.003906 -1.285156 3.140625 -1.609375 3.140625 -2.046875 L 3.140625 -13.1875 C 3.140625 -13.664062 2.984375 -14.007812 2.671875 -14.21875 C 2.367188 -14.4375 1.847656 -14.585938 1.109375 -14.671875 L 1.109375 -15.4375 L 7.859375 -15.4375 C 10.035156 -15.4375 11.910156 -14.757812 13.484375 -13.40625 C 15.054688 -12.050781 15.84375 -10.117188 15.84375 -7.609375 C 15.84375 -5.265625 15.03125 -3.410156 13.40625 -2.046875 C 11.789062 -0.679688 9.796875 0 7.421875 0 Z M 5.46875 -14.5 L 5.46875 -2.65625 C 5.46875 -2 5.65625 -1.539062 6.03125 -1.28125 C 6.414062 -1.019531 7.003906 -0.890625 7.796875 -0.890625 C 9.554688 -0.890625 10.894531 -1.46875 11.8125 -2.625 C 12.726562 -3.789062 13.1875 -5.460938 13.1875 -7.640625 C 13.1875 -9.679688 12.644531 -11.34375 11.5625 -12.625 C 10.476562 -13.90625 9.054688 -14.546875 7.296875 -14.546875 C 6.535156 -14.546875 5.925781 -14.53125 5.46875 -14.5 Z M 5.46875 -14.5 "/></g></g></g><g fill="#000000" fill-opacity="1"><g transform="translate(191.003036, 273.882289)"><g><path d="M 9.015625 0 L 9.015625 -0.78125 C 10.347656 -0.863281 11.015625 -1.070312 11.015625 -1.40625 C 11.015625 -1.5625 10.984375 -1.71875 10.921875 -1.875 L 9.625 -5.359375 L 4.203125 -5.359375 C 3.492188 -3.515625 3.140625 -2.304688 3.140625 -1.734375 C 3.140625 -1.203125 3.882812 -0.882812 5.375 -0.78125 L 5.375 0 L -0.453125 0 L -0.453125 -0.78125 C 0.148438 -0.820312 0.628906 -0.960938 0.984375 -1.203125 C 1.347656 -1.441406 1.625 -1.734375 1.8125 -2.078125 C 2 -2.421875 2.675781 -4.085938 3.84375 -7.078125 L 7.171875 -15.671875 L 8.046875 -15.671875 L 13.1875 -2.34375 C 13.550781 -1.375 14.304688 -0.851562 15.453125 -0.78125 L 15.453125 0 Z M 6.90625 -12.296875 L 4.609375 -6.3125 L 9.25 -6.3125 Z M 6.90625 -12.296875 "/></g></g></g><g fill="#000000" fill-opacity="1"><g transform="translate(218.501124, 273.882289)"><g><path d="M 12.859375 -11.25 C 12.703125 -11.84375 12.410156 -12.460938 11.984375 -13.109375 C 11.554688 -13.765625 11.1875 -14.175781 10.875 -14.34375 C 10.570312 -14.507812 9.84375 -14.59375 8.6875 -14.59375 L 8.046875 -14.59375 L 8.046875 -2.25 C 8.046875 -1.84375 8.175781 -1.523438 8.4375 -1.296875 C 8.695312 -1.066406 9.398438 -0.894531 10.546875 -0.78125 L 10.546875 0 L 3.25 0 L 3.25 -0.78125 C 4.320312 -0.851562 5 -0.972656 5.28125 -1.140625 C 5.570312 -1.304688 5.71875 -1.640625 5.71875 -2.140625 L 5.71875 -14.59375 L 5.109375 -14.59375 C 4.054688 -14.59375 3.375 -14.539062 3.0625 -14.4375 C 2.75 -14.332031 2.363281 -13.953125 1.90625 -13.296875 C 1.457031 -12.640625 1.132812 -11.957031 0.9375 -11.25 L 0.15625 -11.25 L 0.15625 -15.4375 L 13.609375 -15.4375 L 13.609375 -11.25 Z M 12.859375 -11.25 "/></g></g></g><g fill="#000000" fill-opacity="1"><g transform="translate(244.845974, 273.882289)"><g><path d="M 0.875 0 L 0.875 -0.78125 C 1.894531 -0.851562 2.535156 -0.957031 2.796875 -1.09375 C 3.054688 -1.238281 3.1875 -1.550781 3.1875 -2.03125 L 3.1875 -13.203125 C 3.1875 -13.691406 2.96875 -14.046875 2.53125 -14.265625 C 2.101562 -14.484375 1.550781 -14.617188 0.875 -14.671875 L 0.875 -15.4375 L 7.828125 -15.4375 L 7.828125 -14.671875 C 6.847656 -14.597656 6.210938 -14.46875 5.921875 -14.28125 C 5.640625 -14.09375 5.5 -13.773438 5.5 -13.328125 L 5.5 -2.171875 C 5.5 -1.785156 5.625 -1.476562 5.875 -1.25 C 6.125 -1.019531 6.773438 -0.863281 7.828125 -0.78125 L 7.828125 0 Z M 0.875 0 "/></g></g></g><g fill="#000000" fill-opacity="1"><g transform="translate(266.0883, 273.882289)"><g><path d="M 8.296875 0.375 C 6.171875 0.375 4.398438 -0.382812 2.984375 -1.90625 C 1.578125 -3.4375 0.875 -5.375 0.875 -7.71875 C 0.875 -10.082031 1.585938 -12.019531 3.015625 -13.53125 C 4.453125 -15.039062 6.210938 -15.796875 8.296875 -15.796875 C 10.410156 -15.796875 12.171875 -15.039062 13.578125 -13.53125 C 14.992188 -12.019531 15.703125 -10.082031 15.703125 -7.71875 C 15.703125 -5.332031 14.984375 -3.382812 13.546875 -1.875 C 12.117188 -0.375 10.367188 0.375 8.296875 0.375 Z M 8.296875 -14.84375 C 6.773438 -14.84375 5.59375 -14.203125 4.75 -12.921875 C 3.914062 -11.640625 3.5 -9.90625 3.5 -7.71875 C 3.5 -5.507812 3.921875 -3.769531 4.765625 -2.5 C 5.609375 -1.226562 6.785156 -0.59375 8.296875 -0.59375 C 9.816406 -0.59375 10.992188 -1.226562 11.828125 -2.5 C 12.660156 -3.78125 13.078125 -5.519531 13.078125 -7.71875 C 13.078125 -9.914062 12.65625 -11.648438 11.8125 -12.921875 C 10.96875 -14.203125 9.796875 -14.84375 8.296875 -14.84375 Z M 8.296875 -14.84375 "/></g></g></g><g fill="#000000" fill-opacity="1"><g transform="translate(295.21833, 273.882289)"><g><path d="M 16.90625 -14.671875 C 15.84375 -14.523438 15.15625 -14.289062 14.84375 -13.96875 C 14.539062 -13.644531 14.390625 -12.703125 14.390625 -11.140625 L 14.390625 0.15625 L 13.453125 0.15625 L 4.109375 -12.484375 L 4.109375 -4.53125 C 4.109375 -3.570312 4.164062 -2.867188 4.28125 -2.421875 C 4.394531 -1.984375 4.53125 -1.679688 4.6875 -1.515625 C 4.851562 -1.347656 5.171875 -1.191406 5.640625 -1.046875 C 6.109375 -0.898438 6.515625 -0.8125 6.859375 -0.78125 L 6.859375 0 L 0.515625 0 L 0.515625 -0.78125 C 1.378906 -0.90625 2.019531 -1.097656 2.4375 -1.359375 C 2.851562 -1.628906 3.0625 -2.640625 3.0625 -4.390625 L 3.0625 -12.015625 C 3.0625 -13.515625 2.128906 -14.398438 0.265625 -14.671875 L 0.265625 -15.4375 L 4.65625 -15.4375 L 13.34375 -3.671875 L 13.34375 -11.015625 C 13.34375 -12.660156 13.140625 -13.644531 12.734375 -13.96875 C 12.328125 -14.289062 11.625 -14.523438 10.625 -14.671875 L 10.625 -15.4375 L 16.90625 -15.4375 Z M 16.90625 -14.671875 "/></g></g></g></svg>